<?xml version="1.0" encoding="utf-8"?>
<svg xmlns="http://www.w3.org/2000/svg" xmlns:xlink="http://www.w3.org/1999/xlink" style="margin: auto; background: rgb(255, 255, 255); display: block; shape-rendering: auto;" width="171px" height="171px" viewBox="0 0 100 100" preserveAspectRatio="xMidYMid">
<g transform="rotate(0 50 50)">
  <rect x="49.5" y="28.5" rx="0" ry="0" width="1" height="13" fill="#24292e">
    <animate attributeName="opacity" values="1;0" keyTimes="0;1" dur="0.7042253521126761s" begin="-0.6895539906103286s" repeatCount="indefinite"></animate>
  </rect>
</g><g transform="rotate(7.5 50 50)">
  <rect x="49.5" y="28.5" rx="0" ry="0" width="1" height="13" fill="#24292e">
    <animate attributeName="opacity" values="1;0" keyTimes="0;1" dur="0.7042253521126761s" begin="-0.6748826291079812s" repeatCount="indefinite"></animate>
  </rect>
</g><g transform="rotate(15 50 50)">
  <rect x="49.5" y="28.5" rx="0" ry="0" width="1" height="13" fill="#24292e">
    <animate attributeName="opacity" values="1;0" keyTimes="0;1" dur="0.7042253521126761s" begin="-0.6602112676056339s" repeatCount="indefinite"></animate>
  </rect>
</g><g transform="rotate(22.5 50 50)">
  <rect x="49.5" y="28.5" rx="0" ry="0" width="1" height="13" fill="#24292e">
    <animate attributeName="opacity" values="1;0" keyTimes="0;1" dur="0.7042253521126761s" begin="-0.6455399061032864s" repeatCount="indefinite"></animate>
  </rect>
</g><g transform="rotate(30 50 50)">
  <rect x="49.5" y="28.5" rx="0" ry="0" width="1" height="13" fill="#24292e">
    <animate attributeName="opacity" values="1;0" keyTimes="0;1" dur="0.7042253521126761s" begin="-0.630868544600939s" repeatCount="indefinite"></animate>
  </rect>
</g><g transform="rotate(37.5 50 50)">
  <rect x="49.5" y="28.5" rx="0" ry="0" width="1" height="13" fill="#24292e">
    <animate attributeName="opacity" values="1;0" keyTimes="0;1" dur="0.7042253521126761s" begin="-0.6161971830985916s" repeatCount="indefinite"></animate>
  </rect>
</g><g transform="rotate(45 50 50)">
  <rect x="49.5" y="28.5" rx="0" ry="0" width="1" height="13" fill="#24292e">
    <animate attributeName="opacity" values="1;0" keyTimes="0;1" dur="0.7042253521126761s" begin="-0.6015258215962441s" repeatCount="indefinite"></animate>
  </rect>
</g><g transform="rotate(52.5 50 50)">
  <rect x="49.5" y="28.5" rx="0" ry="0" width="1" height="13" fill="#24292e">
    <animate attributeName="opacity" values="1;0" keyTimes="0;1" dur="0.7042253521126761s" begin="-0.5868544600938967s" repeatCount="indefinite"></animate>
  </rect>
</g><g transform="rotate(60 50 50)">
  <rect x="49.5" y="28.5" rx="0" ry="0" width="1" height="13" fill="#24292e">
    <animate attributeName="opacity" values="1;0" keyTimes="0;1" dur="0.7042253521126761s" begin="-0.5721830985915494s" repeatCount="indefinite"></animate>
  </rect>
</g><g transform="rotate(67.5 50 50)">
  <rect x="49.5" y="28.5" rx="0" ry="0" width="1" height="13" fill="#24292e">
    <animate attributeName="opacity" values="1;0" keyTimes="0;1" dur="0.7042253521126761s" begin="-0.5575117370892019s" repeatCount="indefinite"></animate>
  </rect>
</g><g transform="rotate(75 50 50)">
  <rect x="49.5" y="28.5" rx="0" ry="0" width="1" height="13" fill="#24292e">
    <animate attributeName="opacity" values="1;0" keyTimes="0;1" dur="0.7042253521126761s" begin="-0.5428403755868545s" repeatCount="indefinite"></animate>
  </rect>
</g><g transform="rotate(82.5 50 50)">
  <rect x="49.5" y="28.5" rx="0" ry="0" width="1" height="13" fill="#24292e">
    <animate attributeName="opacity" values="1;0" keyTimes="0;1" dur="0.7042253521126761s" begin="-0.5281690140845071s" repeatCount="indefinite"></animate>
  </rect>
</g><g transform="rotate(90 50 50)">
  <rect x="49.5" y="28.5" rx="0" ry="0" width="1" height="13" fill="#24292e">
    <animate attributeName="opacity" values="1;0" keyTimes="0;1" dur="0.7042253521126761s" begin="-0.5134976525821596s" repeatCount="indefinite"></animate>
  </rect>
</g><g transform="rotate(97.5 50 50)">
  <rect x="49.5" y="28.5" rx="0" ry="0" width="1" height="13" fill="#24292e">
    <animate attributeName="opacity" values="1;0" keyTimes="0;1" dur="0.7042253521126761s" begin="-0.49882629107981225s" repeatCount="indefinite"></animate>
  </rect>
</g><g transform="rotate(105 50 50)">
  <rect x="49.5" y="28.5" rx="0" ry="0" width="1" height="13" fill="#24292e">
    <animate attributeName="opacity" values="1;0" keyTimes="0;1" dur="0.7042253521126761s" begin="-0.4841549295774648s" repeatCount="indefinite"></animate>
  </rect>
</g><g transform="rotate(112.5 50 50)">
  <rect x="49.5" y="28.5" rx="0" ry="0" width="1" height="13" fill="#24292e">
    <animate attributeName="opacity" values="1;0" keyTimes="0;1" dur="0.7042253521126761s" begin="-0.4694835680751174s" repeatCount="indefinite"></animate>
  </rect>
</g><g transform="rotate(120 50 50)">
  <rect x="49.5" y="28.5" rx="0" ry="0" width="1" height="13" fill="#24292e">
    <animate attributeName="opacity" values="1;0" keyTimes="0;1" dur="0.7042253521126761s" begin="-0.45481220657277s" repeatCount="indefinite"></animate>
  </rect>
</g><g transform="rotate(127.5 50 50)">
  <rect x="49.5" y="28.5" rx="0" ry="0" width="1" height="13" fill="#24292e">
    <animate attributeName="opacity" values="1;0" keyTimes="0;1" dur="0.7042253521126761s" begin="-0.44014084507042256s" repeatCount="indefinite"></animate>
  </rect>
</g><g transform="rotate(135 50 50)">
  <rect x="49.5" y="28.5" rx="0" ry="0" width="1" height="13" fill="#24292e">
    <animate attributeName="opacity" values="1;0" keyTimes="0;1" dur="0.7042253521126761s" begin="-0.4254694835680751s" repeatCount="indefinite"></animate>
  </rect>
</g><g transform="rotate(142.5 50 50)">
  <rect x="49.5" y="28.5" rx="0" ry="0" width="1" height="13" fill="#24292e">
    <animate attributeName="opacity" values="1;0" keyTimes="0;1" dur="0.7042253521126761s" begin="-0.41079812206572774s" repeatCount="indefinite"></animate>
  </rect>
</g><g transform="rotate(150 50 50)">
  <rect x="49.5" y="28.5" rx="0" ry="0" width="1" height="13" fill="#24292e">
    <animate attributeName="opacity" values="1;0" keyTimes="0;1" dur="0.7042253521126761s" begin="-0.3961267605633803s" repeatCount="indefinite"></animate>
  </rect>
</g><g transform="rotate(157.5 50 50)">
  <rect x="49.5" y="28.5" rx="0" ry="0" width="1" height="13" fill="#24292e">
    <animate attributeName="opacity" values="1;0" keyTimes="0;1" dur="0.7042253521126761s" begin="-0.3814553990610329s" repeatCount="indefinite"></animate>
  </rect>
</g><g transform="rotate(165 50 50)">
  <rect x="49.5" y="28.5" rx="0" ry="0" width="1" height="13" fill="#24292e">
    <animate attributeName="opacity" values="1;0" keyTimes="0;1" dur="0.7042253521126761s" begin="-0.36678403755868544s" repeatCount="indefinite"></animate>
  </rect>
</g><g transform="rotate(172.5 50 50)">
  <rect x="49.5" y="28.5" rx="0" ry="0" width="1" height="13" fill="#24292e">
    <animate attributeName="opacity" values="1;0" keyTimes="0;1" dur="0.7042253521126761s" begin="-0.35211267605633806s" repeatCount="indefinite"></animate>
  </rect>
</g><g transform="rotate(180 50 50)">
  <rect x="49.5" y="28.5" rx="0" ry="0" width="1" height="13" fill="#24292e">
    <animate attributeName="opacity" values="1;0" keyTimes="0;1" dur="0.7042253521126761s" begin="-0.3374413145539906s" repeatCount="indefinite"></animate>
  </rect>
</g><g transform="rotate(187.5 50 50)">
  <rect x="49.5" y="28.5" rx="0" ry="0" width="1" height="13" fill="#24292e">
    <animate attributeName="opacity" values="1;0" keyTimes="0;1" dur="0.7042253521126761s" begin="-0.3227699530516432s" repeatCount="indefinite"></animate>
  </rect>
</g><g transform="rotate(195 50 50)">
  <rect x="49.5" y="28.5" rx="0" ry="0" width="1" height="13" fill="#24292e">
    <animate attributeName="opacity" values="1;0" keyTimes="0;1" dur="0.7042253521126761s" begin="-0.3080985915492958s" repeatCount="indefinite"></animate>
  </rect>
</g><g transform="rotate(202.5 50 50)">
  <rect x="49.5" y="28.5" rx="0" ry="0" width="1" height="13" fill="#24292e">
    <animate attributeName="opacity" values="1;0" keyTimes="0;1" dur="0.7042253521126761s" begin="-0.2934272300469484s" repeatCount="indefinite"></animate>
  </rect>
</g><g transform="rotate(210 50 50)">
  <rect x="49.5" y="28.5" rx="0" ry="0" width="1" height="13" fill="#24292e">
    <animate attributeName="opacity" values="1;0" keyTimes="0;1" dur="0.7042253521126761s" begin="-0.27875586854460094s" repeatCount="indefinite"></animate>
  </rect>
</g><g transform="rotate(217.5 50 50)">
  <rect x="49.5" y="28.5" rx="0" ry="0" width="1" height="13" fill="#24292e">
    <animate attributeName="opacity" values="1;0" keyTimes="0;1" dur="0.7042253521126761s" begin="-0.26408450704225356s" repeatCount="indefinite"></animate>
  </rect>
</g><g transform="rotate(225 50 50)">
  <rect x="49.5" y="28.5" rx="0" ry="0" width="1" height="13" fill="#24292e">
    <animate attributeName="opacity" values="1;0" keyTimes="0;1" dur="0.7042253521126761s" begin="-0.24941314553990612s" repeatCount="indefinite"></animate>
  </rect>
</g><g transform="rotate(232.5 50 50)">
  <rect x="49.5" y="28.5" rx="0" ry="0" width="1" height="13" fill="#24292e">
    <animate attributeName="opacity" values="1;0" keyTimes="0;1" dur="0.7042253521126761s" begin="-0.2347417840375587s" repeatCount="indefinite"></animate>
  </rect>
</g><g transform="rotate(240 50 50)">
  <rect x="49.5" y="28.5" rx="0" ry="0" width="1" height="13" fill="#24292e">
    <animate attributeName="opacity" values="1;0" keyTimes="0;1" dur="0.7042253521126761s" begin="-0.22007042253521128s" repeatCount="indefinite"></animate>
  </rect>
</g><g transform="rotate(247.5 50 50)">
  <rect x="49.5" y="28.5" rx="0" ry="0" width="1" height="13" fill="#24292e">
    <animate attributeName="opacity" values="1;0" keyTimes="0;1" dur="0.7042253521126761s" begin="-0.20539906103286387s" repeatCount="indefinite"></animate>
  </rect>
</g><g transform="rotate(255 50 50)">
  <rect x="49.5" y="28.5" rx="0" ry="0" width="1" height="13" fill="#24292e">
    <animate attributeName="opacity" values="1;0" keyTimes="0;1" dur="0.7042253521126761s" begin="-0.19072769953051644s" repeatCount="indefinite"></animate>
  </rect>
</g><g transform="rotate(262.5 50 50)">
  <rect x="49.5" y="28.5" rx="0" ry="0" width="1" height="13" fill="#24292e">
    <animate attributeName="opacity" values="1;0" keyTimes="0;1" dur="0.7042253521126761s" begin="-0.17605633802816903s" repeatCount="indefinite"></animate>
  </rect>
</g><g transform="rotate(270 50 50)">
  <rect x="49.5" y="28.5" rx="0" ry="0" width="1" height="13" fill="#24292e">
    <animate attributeName="opacity" values="1;0" keyTimes="0;1" dur="0.7042253521126761s" begin="-0.1613849765258216s" repeatCount="indefinite"></animate>
  </rect>
</g><g transform="rotate(277.5 50 50)">
  <rect x="49.5" y="28.5" rx="0" ry="0" width="1" height="13" fill="#24292e">
    <animate attributeName="opacity" values="1;0" keyTimes="0;1" dur="0.7042253521126761s" begin="-0.1467136150234742s" repeatCount="indefinite"></animate>
  </rect>
</g><g transform="rotate(285 50 50)">
  <rect x="49.5" y="28.5" rx="0" ry="0" width="1" height="13" fill="#24292e">
    <animate attributeName="opacity" values="1;0" keyTimes="0;1" dur="0.7042253521126761s" begin="-0.13204225352112678s" repeatCount="indefinite"></animate>
  </rect>
</g><g transform="rotate(292.5 50 50)">
  <rect x="49.5" y="28.5" rx="0" ry="0" width="1" height="13" fill="#24292e">
    <animate attributeName="opacity" values="1;0" keyTimes="0;1" dur="0.7042253521126761s" begin="-0.11737089201877934s" repeatCount="indefinite"></animate>
  </rect>
</g><g transform="rotate(300 50 50)">
  <rect x="49.5" y="28.5" rx="0" ry="0" width="1" height="13" fill="#24292e">
    <animate attributeName="opacity" values="1;0" keyTimes="0;1" dur="0.7042253521126761s" begin="-0.10269953051643194s" repeatCount="indefinite"></animate>
  </rect>
</g><g transform="rotate(307.5 50 50)">
  <rect x="49.5" y="28.5" rx="0" ry="0" width="1" height="13" fill="#24292e">
    <animate attributeName="opacity" values="1;0" keyTimes="0;1" dur="0.7042253521126761s" begin="-0.08802816901408451s" repeatCount="indefinite"></animate>
  </rect>
</g><g transform="rotate(315 50 50)">
  <rect x="49.5" y="28.5" rx="0" ry="0" width="1" height="13" fill="#24292e">
    <animate attributeName="opacity" values="1;0" keyTimes="0;1" dur="0.7042253521126761s" begin="-0.0733568075117371s" repeatCount="indefinite"></animate>
  </rect>
</g><g transform="rotate(322.5 50 50)">
  <rect x="49.5" y="28.5" rx="0" ry="0" width="1" height="13" fill="#24292e">
    <animate attributeName="opacity" values="1;0" keyTimes="0;1" dur="0.7042253521126761s" begin="-0.05868544600938967s" repeatCount="indefinite"></animate>
  </rect>
</g><g transform="rotate(330 50 50)">
  <rect x="49.5" y="28.5" rx="0" ry="0" width="1" height="13" fill="#24292e">
    <animate attributeName="opacity" values="1;0" keyTimes="0;1" dur="0.7042253521126761s" begin="-0.04401408450704226s" repeatCount="indefinite"></animate>
  </rect>
</g><g transform="rotate(337.5 50 50)">
  <rect x="49.5" y="28.5" rx="0" ry="0" width="1" height="13" fill="#24292e">
    <animate attributeName="opacity" values="1;0" keyTimes="0;1" dur="0.7042253521126761s" begin="-0.029342723004694836s" repeatCount="indefinite"></animate>
  </rect>
</g><g transform="rotate(345 50 50)">
  <rect x="49.5" y="28.5" rx="0" ry="0" width="1" height="13" fill="#24292e">
    <animate attributeName="opacity" values="1;0" keyTimes="0;1" dur="0.7042253521126761s" begin="-0.014671361502347418s" repeatCount="indefinite"></animate>
  </rect>
</g><g transform="rotate(352.5 50 50)">
  <rect x="49.5" y="28.5" rx="0" ry="0" width="1" height="13" fill="#24292e">
    <animate attributeName="opacity" values="1;0" keyTimes="0;1" dur="0.7042253521126761s" begin="0s" repeatCount="indefinite"></animate>
  </rect>
</g>
<!-- [ldio] generated by https://loading.io/ --></svg>